<?xml version="1.0" standalone="no"?>
<!DOCTYPE svg PUBLIC "-//W3C//DTD SVG 20010904//EN"
 "http://www.w3.org/TR/2001/REC-SVG-20010904/DTD/svg10.dtd">
<svg version="1.0" xmlns="http://www.w3.org/2000/svg"
 width="300.000000pt" height="300.000000pt" viewBox="0 0 300.000000 300.000000"
 preserveAspectRatio="xMidYMid meet">
<metadata>
Created by potrace 1.11, written by Peter Selinger 2001-2013
</metadata>
<g transform="translate(0.000000,300.000000) scale(0.100000,-0.100000)"
fill="#000000" stroke="none">
<path d="M808 2215 c-230 -58 -362 -254 -303 -451 35 -118 106 -173 375 -289
223 -97 270 -133 270 -207 0 -91 -71 -137 -211 -138 -89 0 -163 17 -233 52
-56 29 -134 105 -168 165 -26 45 -53 71 -65 59 -2 -2 -23 -95 -46 -207 -22
-112 -45 -205 -49 -207 -4 -2 -8 -10 -8 -18 0 -19 35 -18 65 2 34 22 81 20
205 -10 143 -35 236 -45 360 -41 169 6 278 45 357 127 63 65 86 125 91 238 5
123 -17 188 -89 260 -61 61 -129 99 -333 186 -216 92 -262 136 -224 218 29 65
194 90 310 46 67 -25 138 -85 174 -146 45 -77 54 -63 96 151 20 104 35 191 32
194 -2 3 -21 -1 -42 -9 -48 -17 -90 -15 -187 11 -105 27 -297 34 -377 14z
m338 -166 c45 -17 75 -38 125 -89 58 -59 66 -71 61 -96 l-5 -28 -15 24 c-37
59 -129 137 -188 160 -77 30 -212 33 -262 6 -40 -21 -50 -17 -23 8 56 51 193
57 307 15z m-586 -70 c-16 -56 -12 -185 7 -222 49 -95 88 -122 336 -235 258
-117 294 -145 304 -236 7 -55 -18 -109 -62 -136 -49 -30 -59 -24 -19 13 40 36
54 83 43 135 -14 65 -36 79 -394 247 -129 60 -198 115 -238 190 -31 58 -30
172 1 239 25 55 37 58 22 5z m-55 -632 c5 -18 -17 -140 -50 -284 -4 -19 -2
-21 33 -16 24 3 76 -4 138 -20 137 -35 225 -47 348 -47 126 0 235 19 308 55
l53 26 -34 -30 c-101 -89 -381 -111 -631 -50 -156 37 -177 40 -221 25 -37 -13
-41 -13 -37 2 3 10 20 95 38 190 19 94 38 172 42 172 4 0 10 -10 13 -23z"/>
<path d="M1490 2196 c0 -8 15 -22 34 -31 18 -9 38 -27 45 -41 8 -18 11 -180
11 -555 0 -576 0 -581 -55 -595 -14 -3 -25 -12 -25 -20 0 -12 41 -14 236 -14
143 0 234 4 232 9 -1 6 -19 20 -38 33 -19 13 -37 34 -41 48 -4 14 -7 100 -8
193 l-1 167 38 0 37 -1 58 -121 c52 -106 68 -130 140 -203 110 -111 214 -158
394 -179 47 -6 52 -5 58 15 5 16 2 25 -11 32 -11 6 -52 42 -93 81 -84 82 -177
216 -219 319 -50 120 -51 110 25 142 94 40 185 130 207 205 22 74 20 174 -4
253 -36 117 -144 209 -295 253 -87 25 -725 34 -725 10z m117 -40 l28 -24 3
-537 c2 -318 -1 -550 -7 -570 l-9 -35 133 0 c106 0 135 -3 145 -15 11 -13 -8
-15 -164 -15 l-176 0 20 32 c19 32 20 52 20 584 0 543 0 552 -21 578 -26 33
-9 34 28 2z m514 -121 c102 -36 159 -121 159 -234 -1 -100 -42 -173 -113 -200
-42 -16 -56 -12 -22 6 69 36 104 96 105 177 0 74 -20 126 -66 173 -52 52 -118
73 -226 73 -45 0 -78 4 -78 10 0 16 191 12 241 -5z m-31 -46 c65 -20 115 -74
129 -140 23 -106 -9 -187 -91 -227 -37 -18 -71 -25 -148 -29 l-100 -6 0 213 0
213 83 -5 c45 -3 102 -12 127 -19z m-78 -581 c6 -18 33 -76 59 -129 88 -175
205 -275 399 -340 52 -17 97 -33 99 -35 6 -6 -71 7 -134 23 -191 47 -342 191
-433 415 l-27 68 -47 0 c-36 0 -48 4 -48 15 0 12 13 15 61 15 59 0 60 -1 71
-32z"/>
</g>
</svg>
